<svg width="91" height="79" viewBox="0 0 91 79" fill="none" xmlns="http://www.w3.org/2000/svg">
<g id="fa-solid:hamburger" clip-path="url(#clip0_13_562)">
<path id="Vector" d="M85.9521 23.435L85.9522 23.4351C88.9826 27.6842 85.9378 33.5625 80.5777 33.5625H10.4223C5.06147 33.5625 2.0146 27.6823 5.04751 23.4339L5.04785 23.4335C11.9594 13.7403 27.3405 5.95297 45.5 5.9375C63.6613 5.95296 79.0405 13.7403 85.9521 23.435ZM8.53125 40.5H82.4688C84.5082 40.5 86.4406 41.2046 87.8457 42.4244C89.2463 43.6403 90 45.2565 90 46.9062C90 48.556 89.2463 50.1722 87.8457 51.3881C86.4406 52.6079 84.5082 53.3125 82.4688 53.3125H8.53125C6.49175 53.3125 4.55936 52.6079 3.15431 51.3881C1.75372 50.1722 1 48.556 1 46.9062C1 45.2565 1.75372 43.6403 3.15431 42.4244C4.55936 41.2046 6.49175 40.5 8.53125 40.5ZM4.33223 60.7282C4.67067 60.4344 5.15642 60.25 5.6875 60.25H85.3125C85.8436 60.25 86.3293 60.4344 86.6678 60.7282C87.0017 61.0182 87.1562 61.3785 87.1562 61.7188V64.1875C87.1562 66.492 86.1029 68.7362 84.169 70.415C82.2307 72.0978 79.575 73.0625 76.7812 73.0625H14.2188C11.425 73.0625 8.76933 72.0978 6.83097 70.415C4.89708 68.7362 3.84375 66.492 3.84375 64.1875V61.7188C3.84375 61.3785 3.99825 61.0182 4.33223 60.7282L3.68821 59.9864L4.33223 60.7282ZM70.3317 16.8323C69.7053 16.469 68.9812 16.2812 68.25 16.2812C67.2727 16.2812 66.3118 16.617 65.5836 17.2492C64.851 17.8852 64.4062 18.7807 64.4062 19.75C64.4062 20.4703 64.6531 21.1599 65.0931 21.7315C65.5313 22.3008 66.1385 22.7255 66.8234 22.9718C67.5081 23.2181 68.2553 23.281 68.975 23.1567C69.6946 23.0325 70.3722 22.7233 70.9164 22.2508C71.462 21.7772 71.8533 21.1557 72.0138 20.455C72.1749 19.7521 72.0904 19.0255 71.7798 18.3746C71.4707 17.7267 70.9587 17.196 70.3317 16.8323ZM47.5817 11.8948C46.9553 11.5315 46.2313 11.3438 45.5 11.3438C44.5227 11.3438 43.5618 11.6795 42.8336 12.3117C42.101 12.9477 41.6562 13.8432 41.6562 14.8125C41.6562 15.5328 41.9031 16.2224 42.3431 16.794C42.7812 17.3633 43.3885 17.788 44.0734 18.0343C44.7581 18.2806 45.5053 18.3435 46.225 18.2192C46.9446 18.095 47.6222 17.7858 48.1664 17.3133C48.712 16.8397 49.1033 16.2182 49.2639 15.5175C49.4249 14.8146 49.3404 14.088 49.0298 13.4371C48.7207 12.7892 48.2087 12.2585 47.5817 11.8948ZM24.8317 16.8323C24.2053 16.469 23.4813 16.2812 22.75 16.2812C21.7727 16.2812 20.8118 16.617 20.0836 17.2492C19.351 17.8852 18.9062 18.7807 18.9062 19.75C18.9062 20.4703 19.1531 21.1599 19.5931 21.7315C20.0313 22.3008 20.6385 22.7255 21.3234 22.9718C22.0081 23.2181 22.7553 23.281 23.475 23.1567C24.1946 23.0325 24.8722 22.7233 25.4164 22.2508C25.962 21.7772 26.3533 21.1557 26.5138 20.455C26.6749 19.7521 26.5904 19.0255 26.2798 18.3746C25.9707 17.7267 25.4587 17.196 24.8317 16.8323Z" fill="#FFEC8A" stroke="black" stroke-width="2"/>
</g>
<defs>
<clipPath id="clip0_13_562">
<rect width="91" height="79" fill="white"/>
</clipPath>
</defs>
</svg>
